<?xml version="1.0" encoding="UTF-8"?>
<svg version="1.1" xmlns="http://www.w3.org/2000/svg" width="32" height="32">
<path d="M0 0 C4.8846525 2.26787438 7.73212562 5.1153475 10 10 C10.75381535 15.5997712 10.77303575 20.33499991 8.375 25.5 C3.80134327 30.3143755 0.6912538 32.25156236 -6 32.5 C-12.6912538 32.25156236 -15.80134327 30.3143755 -20.375 25.5 C-22.77303575 20.33499991 -22.75381535 15.5997712 -22 10 C-17.52212837 0.3553534 -9.85292056 -1.32635469 0 0 Z " fill="#AD88ED" transform="translate(22,0)"/>
<path d="M0 0 C3.375 1.875 3.375 1.875 4.3125 4.5625 C4.333125 5.325625 4.35375 6.08875 4.375 6.875 C3.983125 6.235625 3.59125 5.59625 3.1875 4.9375 C0.99027704 2.43721181 -0.38291433 2.22549575 -3.625 1.875 C-3.955 4.185 -4.285 6.495 -4.625 8.875 C-3.573125 8.648125 -2.52125 8.42125 -1.4375 8.1875 C2.76301417 7.84319556 4.0912062 8.38727742 7.375 10.875 C7.1073244 14.17633235 6.8146165 15.50003298 4.25 17.6875 C1.375 18.875 1.375 18.875 -5.625 18.875 C-5.955 12.605 -6.285 6.335 -6.625 -0.125 C-3.625 -1.125 -3.625 -1.125 0 0 Z " fill="#E1D4F8" transform="translate(15.625,7.125)"/>
<path d="M0 0 C3.3 0 6.6 0 10 0 C10 1.65 10 3.3 10 5 C6.49223216 6.60355101 3.85645121 7.22036864 0 7 C0 4.69 0 2.38 0 0 Z " fill="#AE88ED" transform="translate(11,18)"/>
<path d="M0 0 C0.33 1.65 0.66 3.3 1 5 C0.01 5.495 0.01 5.495 -1 6 C-1 4.35 -1 2.7 -1 1 C-4.3 1 -7.6 1 -11 1 C-11 0.34 -11 -0.32 -11 -1 C-6.70700357 -2.26264601 -4.12168689 -1.62950412 0 0 Z " fill="#D7C5F6" transform="translate(22,17)"/>
</svg>
